<svg id="Livello_1" data-name="Livello 1" xmlns="http://www.w3.org/2000/svg" xmlns:xlink="http://www.w3.org/1999/xlink" viewBox="0 0 1110 1080"><defs><style>.cls-1{fill:#1d1d1b;}.cls-2{fill:url(#Sfumatura_senza_nome_37);}.cls-3{fill:url(#Sfumatura_senza_nome_37-4);}</style><linearGradient id="Sfumatura_senza_nome_37" x1="318.44" y1="397.16" x2="737.72" y2="397.16" gradientUnits="userSpaceOnUse"><stop offset="0" stop-color="#39a935"/><stop offset="1" stop-color="#00a099"/></linearGradient><linearGradient id="Sfumatura_senza_nome_37-4" x1="169.24" y1="818.24" x2="944.42" y2="818.24" xlink:href="#Sfumatura_senza_nome_37"/></defs><path d="M683.5,506.61l22.77,42.88H657.73L635,506.61l-45-84.73H475.26a42.37,42.37,0,1,0,0,84.73h69.62l2,3.82,20.74,39.06H475.26a85.24,85.24,0,1,1,0-170.48q1,0,1.89,0v0h152a42.38,42.38,0,0,0,0-84.75h-197l-12-22.64L409.41,251.4,385.1,205.62H341.19l-22.75-42.88h92.44l22.76,42.88,24.3,45.78H629.12a85.24,85.24,0,0,1,9.14,170l.27.49Z"/><path class="cls-1" d="M737.72,596.22a35.36,35.36,0,1,1-35.36-35.35A35.36,35.36,0,0,1,737.72,596.22Z"/><path class="cls-1" d="M461.76,596.22a35.36,35.36,0,1,1-35.37-35.35A35.36,35.36,0,0,1,461.76,596.22Z"/><path class="cls-2" d="M683.5,506.61l22.77,42.88H657.73L635,506.61l-45-84.73H475.26a42.37,42.37,0,1,0,0,84.73h69.62l2,3.82,20.74,39.06H475.26a85.24,85.24,0,1,1,0-170.48q1,0,1.89,0v0h152a42.38,42.38,0,0,0,0-84.75h-197l-12-22.64L409.41,251.4,385.1,205.62H341.19l-22.75-42.88h92.44l22.76,42.88,24.3,45.78H629.12a85.24,85.24,0,0,1,9.14,170l.27.49Z"/><path class="cls-2" d="M737.72,596.22a35.36,35.36,0,1,1-35.36-35.35A35.36,35.36,0,0,1,737.72,596.22Z"/><path class="cls-2" d="M461.76,596.22a35.36,35.36,0,1,1-35.37-35.35A35.36,35.36,0,0,1,461.76,596.22Z"/><path d="M207,737.11c9.18-13.77,25.64-20,41.57-20a60.25,60.25,0,0,1,17,2.43v28.08A48.66,48.66,0,0,0,234,749.26c-5.13,1.62-10,5.4-15.12,11.61A49.05,49.05,0,0,0,209.47,783a163.1,163.1,0,0,0-2.16,26.18l-.27,7.56v49.68h-37.8v-149H207Z"/><path d="M391.51,856.17c-.81.81-21.33,11.34-42.93,11.34-40.23,0-73.43-34.83-73.43-75,0-40.5,33.2-75.33,73.43-75.33,21.6,0,42.12,10.53,42.93,11.34V718.21H429V866.7H391.51Zm-.27-63.71c0-23.76-17-40.77-39.15-40.77s-39.15,17-39.15,40.77c0,23.48,17,40.49,39.15,40.49S391.24,815.94,391.24,792.46Z"/><path d="M607.69,790.84c0,39.68-32.93,74-72.08,74-21.6,0-41.84-10.53-42.38-11.07v66.41H456V718.48h37.26v9.45c.54-.54,20.78-11.07,42.38-11.07C574.76,716.86,607.69,751.15,607.69,790.84Zm-38.06-.27c0-23.76-17.55-40.77-39.15-40.77-21.06,0-36.44,15.39-37.25,37.8v4c1.08,22.67,17.27,39.14,38.33,39.14C553.16,830.79,569.63,814.05,569.63,790.57Z"/><path d="M781.55,790.84c0,39.68-32.94,74-72.08,74-21.6,0-41.85-10.53-42.39-11.07v66.41H629.83V718.48h37.25v9.45c.54-.54,20.79-11.07,42.39-11.07C748.61,716.86,781.55,751.15,781.55,790.84Zm-38.06-.27c0-23.76-17.55-40.77-39.15-40.77-21.06,0-36.45,15.39-37.26,37.8v4c1.08,22.67,17.28,39.14,38.34,39.14C727,830.79,743.49,814.05,743.49,790.57Z"/><path d="M944.42,773.83V866.7H906.9V784.63c0-11.61-3.51-20.52-9.72-27a30.07,30.07,0,0,0-22.41-10c-16.74,0-33.21,13.5-33.21,34.29V866.7H804V718.21h37.79v15.12c7.83-9.45,21.06-16.74,37-17h3c17.28,0,33.48,4.32,45.35,14.58C939.29,740.89,944.42,757.63,944.42,773.83Z"/><path class="cls-3" d="M207,737.11c9.18-13.77,25.64-20,41.57-20a60.25,60.25,0,0,1,17,2.43v28.08A48.66,48.66,0,0,0,234,749.26c-5.13,1.62-10,5.4-15.12,11.61A49.05,49.05,0,0,0,209.47,783a163.1,163.1,0,0,0-2.16,26.18l-.27,7.56v49.68h-37.8v-149H207Z"/><path class="cls-3" d="M391.51,856.17c-.81.81-21.33,11.34-42.93,11.34-40.23,0-73.43-34.83-73.43-75,0-40.5,33.2-75.33,73.43-75.33,21.6,0,42.12,10.53,42.93,11.34V718.21H429V866.7H391.51Zm-.27-63.71c0-23.76-17-40.77-39.15-40.77s-39.15,17-39.15,40.77c0,23.48,17,40.49,39.15,40.49S391.24,815.94,391.24,792.46Z"/><path class="cls-3" d="M607.69,790.84c0,39.68-32.93,74-72.08,74-21.6,0-41.84-10.53-42.38-11.07v66.41H456V718.48h37.26v9.45c.54-.54,20.78-11.07,42.38-11.07C574.76,716.86,607.69,751.15,607.69,790.84Zm-38.06-.27c0-23.76-17.55-40.77-39.15-40.77-21.06,0-36.44,15.39-37.25,37.8v4c1.08,22.67,17.27,39.14,38.33,39.14C553.16,830.79,569.63,814.05,569.63,790.57Z"/><path class="cls-3" d="M781.55,790.84c0,39.68-32.94,74-72.08,74-21.6,0-41.85-10.53-42.39-11.07v66.41H629.83V718.48h37.25v9.45c.54-.54,20.79-11.07,42.39-11.07C748.61,716.86,781.55,751.15,781.55,790.84Zm-38.06-.27c0-23.76-17.55-40.77-39.15-40.77-21.06,0-36.45,15.39-37.26,37.8v4c1.08,22.67,17.28,39.14,38.34,39.14C727,830.79,743.49,814.05,743.49,790.57Z"/><path class="cls-3" d="M944.42,773.83V866.7H906.9V784.63c0-11.61-3.51-20.52-9.72-27a30.07,30.07,0,0,0-22.41-10c-16.74,0-33.21,13.5-33.21,34.29V866.7H804V718.21h37.79v15.12c7.83-9.45,21.06-16.74,37-17h3c17.28,0,33.48,4.32,45.35,14.58C939.29,740.89,944.42,757.63,944.42,773.83Z"/></svg>